<svg id="Layer_1" data-name="Layer 1" xmlns="http://www.w3.org/2000/svg" viewBox="0 0 405.12 83.52"><defs><style>.cls-1{fill:#30302f;}.cls-2{fill:#5e52a3;}</style></defs><path class="cls-1" d="M103.58,46v.38c0,6.2,3.45,9.65,10.74,9.65a15.14,15.14,0,0,0,10.48-3.9l2.62,4.41c-3.32,3.13-8.44,4.86-13.61,4.86-10,0-16.23-5.75-16.23-14.7,0-11.5,8-19.87,19.1-19.87,9.14,0,15.15,5.49,15.15,14.63a25,25,0,0,1-.45,4.54Zm.64-4.47h21.86c.32-6.2-3.65-9.59-9.65-9.59S105.76,35.68,104.22,41.56Z"/><path class="cls-1" d="M175.34,41.43c0,11.63-8.18,20-19.17,20-6,0-10.29-2.3-12.39-6.52l-1.28,6.14h-5.82l9.46-47.42h6.14l-3.52,17.44a17,17,0,0,1,11.63-4.21C169,26.86,175.34,32.29,175.34,41.43Zm-6.19.32c0-6-3.65-9.52-10.1-9.52-7.67,0-13.23,5.94-13.23,14.31,0,5.94,3.64,9.52,10.1,9.52C163.52,56.06,169.15,50.12,169.15,41.75Z"/><path class="cls-1" d="M180.2,46.8c0-11.44,8.31-19.94,19.87-19.94,9.65,0,15.85,5.68,15.85,14.57,0,11.5-8.24,20-19.81,20C186.46,61.43,180.2,55.61,180.2,46.8Zm29.52-5c0-6-3.64-9.52-10.09-9.52-7.61,0-13.23,5.94-13.23,14.31,0,5.94,3.64,9.52,10.09,9.52C204.16,56.06,209.72,50.12,209.72,41.75Z"/><path class="cls-1" d="M229.91,50.25a9.57,9.57,0,0,0-.19,1.79c0,2.62,1.41,4.21,4.48,4.21a8.46,8.46,0,0,0,4.85-1.59l1.28,4.66a13.74,13.74,0,0,1-7.86,2.11c-5.3,0-8.95-3.2-8.95-8.5a12.56,12.56,0,0,1,.26-2.56l3.64-18.14h-5.75l1-5h5.81l1.47-7.42h6.14l-1.47,7.42h9.71l-1,5h-9.71Z"/><path class="cls-1" d="M248.68,40.29c0-16.79,12-30.34,30.93-30.34,8.36,0,15.06,2.81,18.52,7.85l-5.19,4.47c-2.95-3.82-7.57-5.91-13.84-5.91-14.34,0-23.21,10.81-23.21,23.5,0,9.16,6,15.28,17.37,15.28a20.87,20.87,0,0,0,15.29-6l4.18,4.76c-4.69,5.12-11.9,7.64-20,7.64C257.55,61.56,248.68,52.91,248.68,40.29Z"/><path class="cls-1" d="M347.58,25.3c0,12.9-9.08,20.4-23.64,20.4H310.46l-3,15.28h-7.21l10.09-50.46h18.74C340.8,10.52,347.58,15.93,347.58,25.3Zm-7.21.65c0-6.06-4.32-9.16-12-9.16H316.29l-4.54,22.64h12.33C334.39,39.43,340.37,34.82,340.37,26Z"/><path class="cls-1" d="M384.12,48.37h-27l-8,12.61h-7.78l33-50.46h7.14L394.29,61h-7.14Zm-1.44-5.77-6-24.87L360.84,42.6Z"/><path class="cls-2" d="M53.34,44l-8.47,4.47a6.46,6.46,0,0,1-3,.75,6.29,6.29,0,0,1-6.14-4.68,3.15,3.15,0,0,1-.09-.42A6.26,6.26,0,0,1,37,38.88,6.65,6.65,0,0,1,42,36.49a6.33,6.33,0,0,1,3.67,1.17l0,0Z"/><path class="cls-2" d="M57.25,61.55l4.41-8.5a6.44,6.44,0,0,1,2.06-2.34,6.29,6.29,0,0,1,7.71.35l.32.29a6.26,6.26,0,0,1,1.88,5.1,6.67,6.67,0,0,1-2.79,4.85,6.42,6.42,0,0,1-3.69,1.12h-.06Z"/><path class="cls-2" d="M74.22,35a12.47,12.47,0,0,1-.9,3.38l-.15.36,0,0c-2.16,5-6.09,7.69-11.1,7.69a15.57,15.57,0,0,1-5.85-1.17l-3-1.29,2.9-2.43a6.3,6.3,0,0,0,2-6.13c-.06-.22-.12-.43-.2-.66l-.07-.13,0-.12-.18-.44-.11-.2a11.25,11.25,0,0,0-3.05-3.59,14.13,14.13,0,0,0-8.94-2.94,19,19,0,0,0-6.48,1.18,16.3,16.3,0,0,0-5.68,3.62,16.63,16.63,0,0,0-4.83,9.4c-.84,5.61,1.62,11.47,6.58,15.68l.34.26,0,.07.6.48.24.18a16.6,16.6,0,0,0,2.14,1.32l.31.16A23.35,23.35,0,0,0,46.65,62h.14c.48,0,1,.1,1.49.12s1.11,0,1.67,0c.88,0,1.8,0,2.74-.11l4.1-.32-2.28,3.42c0,.08-.23.32-.55.71a21,21,0,0,1-7.82,6.23A20.81,20.81,0,0,1,38,73.7a27.45,27.45,0,0,1-20.38-9.56A30.12,30.12,0,0,1,11.7,51.76c0-.21-.09-.42-.13-.63A34.32,34.32,0,0,1,11,40.58c0-.23.06-.51.09-.76A34.34,34.34,0,0,1,42.46,9.9q1.32-.09,2.64-.09c.76,0,1.47,0,2.17.07,9,.63,17.92,4.91,22.8,10.9A18.28,18.28,0,0,1,74.22,35Z"/><path class="cls-2" d="M50.87,63.35l.34-.42.46-.63.79-.18L58,61l-3.56,4.31c-.18.21-.36.43-.57.66Z"/><path class="cls-2" d="M52.89,64.07c-.15.18-.31.37-.49.56.25-.3.4-.49.44-.55Z"/></svg>