<?xml version="1.0" encoding="UTF-8"?> <svg xmlns="http://www.w3.org/2000/svg" xmlns:xlink="http://www.w3.org/1999/xlink" width="69px" height="59px" viewBox="0 0 69 59" version="1.1"><title>multi-entity-icon-2x</title><defs><polygon id="path-1" points="0.0866129032 0.175825 24.3903226 0.175825 24.3903226 12.6777625 0.0866129032 12.6777625"></polygon><polygon id="path-3" points="0.0867741935 0.214690909 24.3903226 0.214690909 24.3903226 8.67550909 0.0867741935 8.67550909"></polygon></defs><g id="Homepage-Rd2" stroke="none" stroke-width="1" fill="none" fill-rule="evenodd"><g id="Corvee---Homepage1b" transform="translate(-806.000000, -2755.000000)"><g id="Section-4" transform="translate(0.000000, 1665.957778)"><g id="Card-4" transform="translate(767.000000, 1052.042222)"><g id="multi-entity-icon" transform="translate(39.000000, 37.000000)"><path d="M39.8733782,15.6855992 C38.5104357,15.6855992 37.4054816,14.5603067 37.4054816,13.1714323 L37.4054816,10 L31.5945184,10 L31.5945184,13.1714323 C31.5945184,14.5603067 30.4895643,15.6855992 29.1266218,15.6855992 C25.1904304,15.6855992 22,18.9347544 22,22.9433975 L22,23 L34.4995852,23 L47,23 L47,22.9433975 C47,18.9347544 43.8095696,15.6855992 39.8733782,15.6855992" id="Fill-1" fill="#B2BDC6"></path><path d="M34.5,0 C31.461803,0 29,2.8 29,6.78438729 C29,11.8972466 31.461803,14 34.5,14 C37.538197,14 40,11.8972466 40,6.78438729 C40,2.8 37.538197,0 34.5,0" id="Fill-3" fill="#B2BDC6"></path><path d="M39.8733782,16.3026494 C39.1350831,16.3026494 38.6332083,15.7959776 38.5054584,15 L35.5647211,16.391607 L34.4995852,18.7764456 L34.4995852,18.7764456 L33.4352789,16.391607 L30.493712,15 C30.3659621,15.7959776 29.8649169,16.3026494 29.1257922,16.3026494 C25.1904304,16.3026494 22,19.2777026 22,22.9481725 L22,23 L34.4995852,23 L47,23 L47,22.9481725 C47,19.2777026 43.8087401,16.3026494 39.8733782,16.3026494" id="Fill-5" fill="#E7EBEE"></path><polyline id="Fill-7" fill="#E7EBEE" points="33 16.1735122 31.2352941 19 29 16"></polyline><polyline id="Fill-9" fill="#E7EBEE" points="35 16.1735122 36.7647059 19 39 16"></polyline><path d="M17.8733782,43.6851238 C16.5104357,43.6851238 15.4054816,42.5597582 15.4054816,41.1716384 L15.4054816,38 L9.59451837,38 L9.59451837,41.1716384 C9.59451837,42.5597582 8.48956432,43.6851238 7.12579222,43.6851238 C3.19043037,43.6851238 0,46.935335 0,50.9433938 L0,51 L12.4995852,51 L25,51 L25,50.9433938 C25,46.935335 21.8087401,43.6851238 17.8733782,43.6851238" id="Fill-11" fill="#B2BDC6"></path><path d="M12.5,28 C9.46180296,28 7,30.7998306 7,34.7848239 C7,39.8973738 9.46180296,42 12.5,42 C15.5373748,42 18,39.8973738 18,34.7848239 C18,30.7998306 15.5373748,28 12.5,28" id="Fill-13" fill="#B2BDC6"></path><path d="M17.8733782,44.3020017 C17.1342536,44.3020017 16.6332083,43.7952809 16.5054584,43 L13.5647211,44.390968 L12.4995852,46.7760371 L12.4995852,46.7760371 L11.4352789,44.390968 L8.49371205,43 C8.36596211,43.7952809 7.86491688,44.3020017 7.12579222,44.3020017 C3.19043037,44.3020017 0,47.2781162 0,50.9481675 L0,51 L12.4995852,51 L25,51 L25,50.9481675 C25,47.2781162 21.8087401,44.3020017 17.8733782,44.3020017" id="Fill-15" fill="#E7EBEE"></path><polyline id="Fill-17" fill="#E7EBEE" points="11 44.1726739 9.23529412 47 7 44"></polyline><polyline id="Fill-19" fill="#E7EBEE" points="13 44.1726739 14.7647059 47 17 44"></polyline><g id="Group-23" transform="translate(44.000000, 38.000000)"><mask id="mask-2" fill="white"><use xlink:href="#path-1"></use></mask><g id="Clip-22"></g><path d="M17.4624194,5.6431375 C16.1374194,5.6431375 15.0632258,4.5608875 15.0632258,3.22595 L15.0632258,0.175825 L9.41403226,0.175825 L9.41403226,3.22595 C9.41403226,4.5608875 8.33983871,5.6431375 7.01403226,5.6431375 C3.18822581,5.6431375 0.0866129032,8.768825 0.0866129032,12.623325 L0.0866129032,12.6777625 L12.2382258,12.6777625 L24.3906452,12.6777625 L24.3906452,12.623325 C24.3906452,8.768825 21.2882258,5.6431375 17.4624194,5.6431375" id="Fill-21" fill="#B2BDC6" mask="url(#mask-2)"></path></g><path d="M56.5,28 C53.4626252,28 51,30.7998306 51,34.7848239 C51,39.8973738 53.4626252,42 56.5,42 C59.538197,42 62,39.8973738 62,34.7848239 C62,30.7998306 59.538197,28 56.5,28" id="Fill-24" fill="#B2BDC6"></path><g id="Group-28" transform="translate(44.000000, 43.000000)"><mask id="mask-4" fill="white"><use xlink:href="#path-3"></use></mask><g id="Clip-27"></g><path d="M17.4625806,1.59169091 C16.7440323,1.59169091 16.2569355,1.05578182 16.1327419,0.214690909 L13.273871,1.68578182 L12.2383871,4.20823636 L12.2383871,4.20823636 L11.2029032,1.68578182 L8.34403226,0.214690909 C8.21983871,1.05578182 7.73274194,1.59169091 7.01419355,1.59169091 C3.1883871,1.59169091 0.0867741935,4.73923636 0.0867741935,8.62069091 L0.0867741935,8.67550909 L12.2383871,8.67550909 L24.3908065,8.67550909 L24.3908065,8.62069091 C24.3908065,4.73923636 21.2883871,1.59169091 17.4625806,1.59169091" id="Fill-26" fill="#E7EBEE" mask="url(#mask-4)"></path></g><polyline id="Fill-29" fill="#E7EBEE" points="55 44.1726739 53.2352941 47 51 44"></polyline><polyline id="Fill-31" fill="#E7EBEE" points="57 44.1726739 58.7647059 47 61 44"></polyline><path d="M8,24 C10.3029911,15.6934938 16.7043249,8.98904369 25,6" id="Stroke-33" stroke="#B2BDC6" stroke-width="1.639"></path><path d="M60,24 C57.6970089,15.6934938 51.2956751,8.98904369 43,6" id="Stroke-35" stroke="#B2BDC6" stroke-width="1.639"></path><path d="M49,54 C44.804906,56.5329104 39.8319578,58 34.5,58 C29.1680422,58 24.195094,56.5329104 20,54" id="Stroke-37" stroke="#B2BDC6" stroke-width="1.639"></path></g></g></g></g></g></svg> 