<?xml version="1.0" encoding="UTF-8"?> <svg xmlns="http://www.w3.org/2000/svg" xmlns:xlink="http://www.w3.org/1999/xlink" width="46px" height="57px" viewBox="0 0 46 57" version="1.1"><title>entity-compensation-optimization-2x</title><defs><polygon id="path-1" points="0.7776 0.454624671 7.049 0.454624671 7.049 43.9994 0.7776 43.9994"></polygon></defs><g id="Homepage-Rd2" stroke="none" stroke-width="1" fill="none" fill-rule="evenodd"><g id="Corvee---Homepage1b" transform="translate(-209.000000, -2574.000000)"><g id="Section-4" transform="translate(0.000000, 1665.957778)"><g id="Card-3" transform="translate(170.000000, 852.042222)"><g id="Group-4" transform="translate(39.000000, 40.000000)"><g id="entity-compensation-optimization" transform="translate(0.000000, 17.000000)"><path d="M1.282,40.3306 L1.282,55.2166 L7.554,55.2166 L7.554,38.3146 C7.554,37.8136 7.047,37.4776 6.583,37.6686 C5.018,38.3106 3.445,38.9216 1.869,39.4936 C1.516,39.6216 1.282,39.9546 1.282,40.3306" id="Fill-1" fill="#B2BDC6"></path><path d="M13.7805,35.2339 L13.7805,55.2159 L20.0525,55.2159 L20.0525,31.8379 C20.0525,31.5069 19.6975,31.3019 19.4105,31.4649 C17.7965,32.3779 16.1565,33.2469 14.4995,34.0759 C14.0595,34.2959 13.7805,34.7429 13.7805,35.2339" id="Fill-3" fill="#E7EBEE"></path><path d="M26.2791,28.3003 L26.2791,55.2163 L32.5511,55.2163 L32.5511,23.8033 C32.5511,23.3033 31.9791,23.0293 31.5871,23.3393 C30.1551,24.4673 28.6831,25.5533 27.1761,26.5983 C26.6171,26.9863 26.2791,27.6183 26.2791,28.3003" id="Fill-5" fill="#B2BDC6"></path><g id="Group-9" transform="translate(38.000000, 11.216700)"><mask id="mask-2" fill="white"><use xlink:href="#path-1"></use></mask><g id="Clip-8"></g><path d="M0.7776,6.6344 L0.7776,43.9994 L7.0496,43.9994 L7.0496,1.4984 C7.0496,0.5124 5.8176,0.0814 5.1916,0.8444 C3.9966,2.2994 2.7356,3.7074 1.4176,5.0694 C1.0096,5.4894 0.7776,6.0494 0.7776,6.6344" id="Fill-7" fill="#E7EBEE" mask="url(#mask-2)"></path></g><path d="M0.2815,34.5777 C25.2785,25.4327 36.9375,12.0567 44.0495,0.2607" id="Stroke-10" stroke="#B2BDC6" stroke-width="1.639"></path><polyline id="Stroke-12" stroke="#B2BDC6" stroke-width="1.639" points="43.0701 7.5601 44.0221 0.2961 37.1861 3.1111"></polyline></g></g></g></g></g></g></svg> 