<?xml version="1.0" encoding="UTF-8"?> <svg xmlns="http://www.w3.org/2000/svg" xmlns:xlink="http://www.w3.org/1999/xlink" width="70px" height="76px" viewBox="0 0 70 76" version="1.1"><title>tax-planning-2x</title><defs><polygon id="path-1" points="0 75 69 75 69 0 0 0"></polygon></defs><g id="Homepage-Rd2" stroke="none" stroke-width="1" fill="none" fill-rule="evenodd"><g id="Corvee---Homepage1b" transform="translate(-807.000000, -2451.000000)"><g id="Section-4" transform="translate(0.000000, 1665.957778)"><g id="Card-2" transform="translate(767.000000, 747.042222)"><g id="tax-planning" transform="translate(40.000000, 39.000000)"><path d="M58.2481501,17.4539492 C58.2481501,24.401543 52.589031,30.034013 45.6085657,30.034013 C38.6281004,30.034013 32.9689812,24.401543 32.9689812,17.4539492 C32.9689812,10.5063554 38.6281004,4.87388543 45.6085657,4.87388543 C52.589031,4.87388543 58.2481501,10.5063554 58.2481501,17.4539492" id="Fill-1" fill="#E7EBEE"></path><polyline id="Stroke-3" stroke="#B2BDC6" stroke-width="3" stroke-linejoin="round" points="37.6548926 12.9199227 46.8369206 22.0587119 68.2779909 0.718609126"></polyline><mask id="mask-2" fill="white"><use xlink:href="#path-1"></use></mask><g id="Clip-6"></g><polygon id="Fill-5" fill="#E7EBEE" mask="url(#mask-2)" points="0 75 0 66.0739613 18.8610075 66.0739613 18.8610075 56.6878664 37.7213343 56.6878664 37.7213343 47.3017716 56.5823418 47.3017716 56.5823418 75"></polygon><polyline id="Stroke-7" stroke="#B2BDC6" stroke-width="3" stroke-linejoin="round" mask="url(#mask-2)" points="0 54.7237179 12.2746996 54.7237179 12.2746996 44.6885304 25.5187948 44.6885304 25.5187948 26.9814487"></polyline><polyline id="Stroke-8" stroke="#B2BDC6" stroke-width="3" stroke-linejoin="round" mask="url(#mask-2)" points="19.0855887 34.5887048 25.5187267 26.9818552 31.194184 34.6930474"></polyline></g></g></g></g></g></svg> 