<?xml version="1.0" encoding="UTF-8"?> <svg xmlns="http://www.w3.org/2000/svg" xmlns:xlink="http://www.w3.org/1999/xlink" width="53px" height="55px" viewBox="0 0 53 55" version="1.1"><title>smart-questionnaires-2x</title><g id="Homepage-Rd2" stroke="none" stroke-width="1" fill="none" fill-rule="evenodd"><g id="Corvee---Homepage1b" transform="translate(-210.000000, -2861.000000)"><g id="Section-4" transform="translate(0.000000, 1665.957778)"><g id="Card-5" transform="translate(170.000000, 1157.042222)"><g id="smart-questionnaires" transform="translate(40.000000, 38.000000)"><polygon id="Fill-1" fill="#E7EBEE" points="0.869 20.1428 13.038 20.1428 13.038 7.9728 0.869 7.9728"></polygon><polygon id="Fill-2" fill="#B2BDC6" points="18.231 16.6098 52.559 16.6098 52.559 11.5058 18.231 11.5058"></polygon><polyline id="Stroke-3" stroke="#B2BDC6" stroke-width="2.458" points="0.8691 8.9934 6.9541 15.0774 21.1621 0.8694"></polyline><polygon id="Fill-5" fill="#E7EBEE" points="0.869 37.5738 13.038 37.5738 13.038 25.4048 0.869 25.4048"></polygon><polygon id="Fill-6" fill="#B2BDC6" points="18.231 34.0398 52.559 34.0398 52.559 28.9368 18.231 28.9368"></polygon><polyline id="Stroke-7" stroke="#B2BDC6" stroke-width="2.458" points="0.8691 26.424 6.9541 32.508 21.1621 18.3"></polyline><polygon id="Fill-9" fill="#E7EBEE" points="0.869 55.0038 13.038 55.0038 13.038 42.8348 0.869 42.8348"></polygon><polygon id="Fill-10" fill="#B2BDC6" points="18.231 51.4708 52.559 51.4708 52.559 46.3668 18.231 46.3668"></polygon><polyline id="Stroke-11" stroke="#B2BDC6" stroke-width="2.458" points="0.8691 43.8547 6.9541 49.9387 21.1621 35.7307"></polyline></g></g></g></g></g></svg> 