<?xml version="1.0" encoding="UTF-8"?> <svg xmlns="http://www.w3.org/2000/svg" xmlns:xlink="http://www.w3.org/1999/xlink" width="79px" height="71px" viewBox="0 0 79 71" version="1.1"><title> Home-Create-2x</title><defs><polygon id="path-1" points="0 0 73.5648095 0 73.5648095 64.0755946 0 64.0755946"></polygon><polygon id="path-3" points="0 69.1277703 79 69.1277703 79 0.12777027 0 0.12777027"></polygon></defs><g id="-Home-Create-2x" stroke="none" stroke-width="1" fill="none" fill-rule="evenodd"><g id="Group" transform="translate(0.000000, 1.000000)"><g id="Group-3" transform="translate(0.000264, 0.000000)"><mask id="mask-2" fill="white"><use xlink:href="#path-1"></use></mask><g id="Clip-2"></g><path d="M71.2505476,64.0755946 L2.3142619,64.0755946 C1.036,64.0755946 0,63.0426216 0,61.7680946 L0,2.30714865 C0,1.03262162 1.036,-0.000351351352 2.3142619,-0.000351351352 L71.2505476,-0.000351351352 C72.5288095,-0.000351351352 73.5648095,1.03262162 73.5648095,2.30714865 L73.5648095,61.7680946 C73.5648095,63.0426216 72.5288095,64.0755946 71.2505476,64.0755946" id="Fill-1" fill="#E7EBEE" mask="url(#mask-2)"></path></g><path d="M30,8.98528775 L21.3269306,20.1312668 L21.3269306,34.1277703 C13.4149234,34.1277703 7,27.8646584 7,20.1312668 C7,12.3978752 13.4149234,6.12777027 21.3269306,6.12777027 C24.5858154,6.12777027 27.5933976,7.19420384 30,8.98528775" id="Fill-4" fill="#B2BDC6"></path><path d="M35,33.143445 C32.3688036,36.1903444 28.4143732,38.1277703 24,38.1277703 L24,24.1277703 L35,33.143445 Z" id="Fill-6" fill="#FFFFFF"></path><path d="M38,20.7381852 C38,24.3193759 36.7636772,27.5909797 34.7063452,30.1277703 L24,20.7381852 L32.4793905,9.12777027 C35.835998,11.7956799 38,16.0005969 38,20.7381852" id="Fill-8" fill="#FFFFFF"></path><mask id="mask-4" fill="white"><use xlink:href="#path-3"></use></mask><g id="Clip-11"></g><polygon id="Fill-10" fill="#B2BDC6" mask="url(#mask-4)" points="46 24.1277703 51 24.1277703 51 15.1277703 46 15.1277703"></polygon><polygon id="Fill-12" fill="#B2BDC6" mask="url(#mask-4)" points="53 24.1277703 58 24.1277703 58 11.1277703 53 11.1277703"></polygon><polygon id="Fill-13" fill="#B2BDC6" mask="url(#mask-4)" points="60 24.1277703 65 24.1277703 65 12.1277703 60 12.1277703"></polygon><polygon id="Fill-14" fill="#B2BDC6" mask="url(#mask-4)" points="44 25.1277703 66 25.1277703 66 24.1277703 44 24.1277703"></polygon><polygon id="Fill-15" fill="#B2BDC6" mask="url(#mask-4)" points="9 46.1277703 24 46.1277703 24 43.1277703 9 43.1277703"></polygon><polygon id="Fill-16" fill="#FFFFFF" mask="url(#mask-4)" points="10 56.1277703 17 56.1277703 17 50.1277703 10 50.1277703"></polygon><polygon id="Fill-17" fill="#FFFFFF" mask="url(#mask-4)" points="19 56.1277703 26 56.1277703 26 50.1277703 19 50.1277703"></polygon><polygon id="Fill-18" fill="#FFFFFF" mask="url(#mask-4)" points="29 56.1277703 36 56.1277703 36 50.1277703 29 50.1277703"></polygon><path d="M79,52.6277703 C79,61.7407522 71.6129819,69.1277703 62.5,69.1277703 C53.3870181,69.1277703 46,61.7407522 46,52.6277703 C46,43.5147883 53.3870181,36.1277703 62.5,36.1277703 C71.6129819,36.1277703 79,43.5147883 79,52.6277703" id="Fill-19" fill="#B2BDC6" mask="url(#mask-4)"></path><polygon id="Fill-20" fill="#FFFFFF" mask="url(#mask-4)" points="59.1078043 60.1277703 53 54.1168861 55.1175408 51.9979284 59.0906399 55.9068855 68.8643915 46.1277703 71 48.2305938"></polygon></g></g></svg> 